<svg width="84" height="84" viewBox="0 0 84 84" fill="none" xmlns="http://www.w3.org/2000/svg">
<path d="M42 82.5999C64.4228 82.5999 82.6 64.4227 82.6 41.9999C82.6 19.5771 64.4228 1.3999 42 1.3999C19.5772 1.3999 1.39999 19.5771 1.39999 41.9999C1.39999 64.4227 19.5772 82.5999 42 82.5999Z" fill="#F15922" fill-opacity="0.56"/>
<path d="M42 68.5999C56.6908 68.5999 68.6 56.6907 68.6 41.9999C68.6 27.3091 56.6908 15.3999 42 15.3999C27.3092 15.3999 15.4 27.3091 15.4 41.9999C15.4 56.6907 27.3092 68.5999 42 68.5999Z" fill="#EF7822"/>
<path d="M59.9466 36.0109C60.3983 33.4434 60.2396 30.8057 59.4832 28.3109L58.5844 25.3527C57.4427 21.9923 53.7931 20.1938 50.4327 21.3355C48.5424 21.9778 47.0579 23.4623 46.4156 25.3527L45.5168 28.3109C44.7605 30.8057 44.6017 33.4434 45.0534 36.0109C45.4654 38.1725 46.8377 40.0296 48.783 41.0579L47.7764 63.5601C47.6417 64.816 48.0491 66.0699 48.8964 67.0069C50.7187 69.0001 53.812 69.1387 55.8052 67.3164C55.913 67.2179 56.0163 67.1147 56.1148 67.0069C56.9433 66.0965 57.35 64.8794 57.2348 63.6539L56.2226 41.0551C58.1653 40.0262 59.5354 38.1704 59.9466 36.0109ZM57.1886 35.5237C56.8855 37.0766 55.7788 38.3508 54.2836 38.8683C53.7161 39.0816 53.3505 39.636 53.3778 40.2417L54.4418 63.8751C54.4908 64.3386 54.3379 64.8008 54.0218 65.1435C53.1788 65.978 51.8212 65.978 50.9782 65.1435C50.6464 64.7732 50.4957 64.2748 50.5666 63.7827L51.6222 40.2417C51.6495 39.636 51.2839 39.0816 50.7164 38.8683C49.2212 38.3508 48.1145 37.0766 47.8114 35.5237C47.4369 33.3922 47.5689 31.2024 48.1964 29.1313L49.0952 26.1717C49.7907 24.2913 51.8788 23.3307 53.7593 24.0262C54.7535 24.3938 55.5371 25.1777 55.9048 26.1717L56.8036 29.1313C57.4305 31.2026 57.5624 33.3922 57.1886 35.5237Z" fill="white"/>
<path d="M38.7898 35.9898C39.0523 35.7273 39.2 35.3713 39.2 35V22.4C39.2 21.6268 38.5731 21 37.8 21C37.0268 21 36.4 21.6268 36.4 22.4V34.4204L32.6102 38.2102C32.3298 38.4897 32.1807 38.8747 32.2 39.27L33.425 63.77C33.4542 64.2983 33.2624 64.8151 32.8958 65.1966C32.1295 65.9697 30.8814 65.9753 30.108 65.2089C30.1038 65.2048 30.0998 65.2006 30.0958 65.1966C29.7292 64.8151 29.5374 64.2983 29.5666 63.77L30.8 39.27C30.8196 38.8748 30.671 38.4898 30.3912 38.2102L26.6 34.4204V22.4C26.6 21.6268 25.9731 21 25.2 21C24.4268 21 23.8 21.6268 23.8 22.4V35C23.8 35.3713 23.9477 35.7273 24.2102 35.9898L27.9706 39.7516L26.7764 63.6342C26.6493 66.2429 28.6611 68.4609 31.2699 68.5879C33.8786 68.715 36.0965 66.7032 36.2236 64.0944C36.2311 63.9412 36.2311 63.7877 36.2236 63.6344L35.0294 39.7518L38.7898 35.9898Z" fill="white"/>
<path d="M29.4 35C30.1732 35 30.8 34.3731 30.8 33.6V22.4C30.8 21.6268 30.1732 21 29.4 21C28.6268 21 28 21.6268 28 22.4V33.6C28 34.3731 28.6268 35 29.4 35Z" fill="white"/>
<path d="M32.2 22.4V33.6C32.2 34.3731 32.8269 35 33.6 35C34.3732 35 35 34.3731 35 33.6V22.4C35 21.6268 34.3732 21 33.6 21C32.8269 21 32.2 21.6268 32.2 22.4Z" fill="white"/>
<path d="M42 0C18.8041 0 0 18.8041 0 42C0 65.1959 18.8041 84 42 84C65.1959 84 84 65.1959 84 42C83.9737 18.815 65.1851 0.02625 42 0ZM42 81.2C20.3504 81.2 2.8 63.6496 2.8 42C2.8 20.3504 20.3504 2.8 42 2.8C63.6496 2.8 81.2 20.3504 81.2 42C81.1753 63.6393 63.6393 81.1753 42 81.2Z" fill="#E4E4E4"/>
<path d="M44.9666 67.0279C42.9956 67.2568 41.0044 67.2568 39.0334 67.0279C38.2652 66.9378 37.5695 67.4875 37.4794 68.2557C37.3893 69.024 37.939 69.7196 38.7072 69.8097C40.8931 70.065 43.1013 70.065 45.2872 69.8097C46.0567 69.7346 46.6196 69.0499 46.5446 68.2802C46.4695 67.5107 45.7847 66.9478 45.0151 67.0228C44.9971 67.0246 44.979 67.0267 44.961 67.0291L44.9666 67.0279Z" fill="white"/>
<path d="M61.4418 23.7916C60.8508 24.29 60.7756 25.173 61.2738 25.7642C69.7149 35.7847 69.0692 50.6018 59.7884 59.85C59.2407 60.3958 59.2391 61.2825 59.7849 61.8303C60.3307 62.378 61.2174 62.3796 61.7652 61.8338C72.0792 51.559 72.7984 35.0947 63.42 23.9596C62.9232 23.3672 62.0401 23.2897 61.4477 23.7867C61.4456 23.7883 61.4437 23.79 61.4418 23.7916Z" fill="white"/>
<path d="M32.6116 18.5051C32.7805 18.5048 32.948 18.474 33.1058 18.4141C37.8515 16.6395 43.0189 16.3225 47.9458 17.5041C48.6974 17.6858 49.454 17.224 49.6356 16.4723C49.8172 15.7207 49.3554 14.9642 48.6038 14.7825C43.1324 13.4713 37.3942 13.8237 32.1244 15.7947C31.4006 16.0669 31.0347 16.8741 31.3068 17.5979C31.5123 18.1443 32.035 18.5057 32.6186 18.5051H32.6116Z" fill="white"/>
<path d="M16.8 42.0001C16.7862 36.6721 18.4739 31.4788 21.6174 27.1769C22.082 26.5588 21.9576 25.6812 21.3395 25.2166C20.7214 24.7519 19.8438 24.8764 19.3792 25.4945C19.3709 25.5055 19.3629 25.5165 19.355 25.5277C11.2607 36.6556 12.4518 52.0155 22.1648 61.7625C22.7122 62.3103 23.6002 62.3106 24.1479 61.7632C24.6957 61.2158 24.696 60.3279 24.1486 59.7801C19.429 55.0686 16.7839 48.669 16.8 42.0001Z" fill="white"/>
</svg>
